<?xml version="1.0" encoding="utf-8"?>
<!-- Generator: Adobe Illustrator 24.3.0, SVG Export Plug-In . SVG Version: 6.00 Build 0)  -->
<svg version="1.1" id="Слой_1" xmlns="http://www.w3.org/2000/svg" xmlns:xlink="http://www.w3.org/1999/xlink" x="0px" y="0px"
	 viewBox="0 0 20 16" style="enable-background:new 0 0 20 16;" xml:space="preserve">
<style type="text/css">
	.st0{fill-rule:evenodd;clip-rule:evenodd;fill:#CB11AB;}
</style>
<path class="st0" d="M3,2.1C2.3,2.8,1.8,3.8,2,5.4C2.2,7,3.3,8.7,4.8,10.3c1.5,1.6,3.3,3.1,5.2,4.5c1.9-1.4,3.7-3,5.2-4.5
	C16.7,8.7,17.8,7,18,5.4c0.2-1.6-0.3-2.7-1-3.4C16.2,1.3,15.1,1,14,1c-1.9,0-2.9,1.1-3.5,1.7c-0.1,0.1-0.1,0.1-0.2,0.2
	C10.2,3,9.8,3,9.6,2.9c0,0-0.1-0.1-0.2-0.2C8.9,2.1,7.9,1,6,1C4.9,1,3.8,1.3,3,2.1z M2.4,1.3C3.4,0.4,4.8,0,6,0c2.1,0,3.3,1.1,4,1.8
	C10.7,1.1,11.9,0,14,0c1.2,0,2.6,0.4,3.6,1.3c1,0.9,1.6,2.4,1.4,4.3c-0.3,1.9-1.5,3.7-3.1,5.5c-1.6,1.7-3.6,3.4-5.6,4.9
	c-0.2,0.1-0.4,0.1-0.6,0c-2-1.5-4-3.2-5.6-4.9C2.5,9.3,1.3,7.5,1,5.6C0.7,3.7,1.3,2.2,2.4,1.3z"/>
</svg>
